<svg width="25" height="27" viewBox="0 0 25 27" fill="none" xmlns="http://www.w3.org/2000/svg">
    <rect width="25" height="27" rx="4" fill="#0DC9A4" />
    <path
        d="M13.1673 7.16726C13.1673 6.61497 13.6169 6.1604 14.1643 6.23383C15.2941 6.38536 16.379 6.79311 17.334 7.43124C18.5674 8.25535 19.5287 9.42669 20.0964 10.7971C20.664 12.1676 20.8125 13.6756 20.5232 15.1304C20.2338 16.5853 19.5195 17.9217 18.4706 18.9706C17.4217 20.0195 16.0853 20.7338 14.6304 21.0231C13.1756 21.3125 11.6676 21.164 10.2971 20.5964C8.9267 20.0287 7.75536 19.0674 6.93125 17.834C6.29311 16.879 5.88537 15.7941 5.73383 14.6643C5.66041 14.1169 6.11498 13.6673 6.66727 13.6673L12.1673 13.6673C12.7196 13.6673 13.1673 13.2195 13.1673 12.6673L13.1673 7.16726Z"
        fill="white" />
    <path
        d="M4.54593 11.5459C3.99364 11.5459 3.53908 11.0963 3.6125 10.5489C3.69863 9.90673 3.86781 9.27701 4.11683 8.67582C4.49374 7.76588 5.04619 6.93908 5.74263 6.24264C6.43907 5.5462 7.26586 4.99376 8.1758 4.61685C8.777 4.36782 9.40671 4.19865 10.0489 4.11251C10.5963 4.03909 11.0459 4.49366 11.0459 5.04594L11.0459 10.5459C11.0459 11.0982 10.5982 11.5459 10.0459 11.5459L4.54593 11.5459Z"
        fill="white" />
</svg>
    